name C:\Users\tom_v\MusculoskeletalSpecialization\ResultsSprinting\Case_4\motion.mot
datacolumns 32
datarows 14
range 0.13662706 0.20767314
endheader 
time	pelvis_tilt	pelvis_list	pelvis_rotation	pelvis_tx	pelvis_ty	pelvis_tz	hip_flexion_r	hip_adduction_r	hip_rotation_r	knee_angle_r	ankle_angle_r	subtalar_angle_r	mtp_angle_r	hip_flexion_l	hip_adduction_l	hip_rotation_l	knee_angle_l	ankle_angle_l	subtalar_angle_l	mtp_angle_l	lumbar_extension	lumbar_bending	lumbar_rotation	arm_flex_r	arm_add_r	arm_rot_r	elbow_flex_r	arm_flex_l	arm_add_l	arm_rot_l	elbow_flex_l	
          0.13662706	        -11.14788338	          2.22644709	          0.62571314	          0.44524129	          0.88810514	          0.00447336	         11.86569024	          1.59648282	          4.86619525	        -37.80610643	         13.69531346	          0.25335729	         29.77061018	         37.73134493	          1.97540468	         -4.01485317	        -71.63248972	          9.54259196	          3.00120705	          1.91016858	         -2.28372210	         -1.30864572	          1.33421113	         28.36974561	         -3.39943773	         16.99172380	          0.12395273	        -14.17417917	        -22.98348740	          7.60050423	         97.77301833	
          0.14209215	        -11.17356741	          2.37021164	          0.61282168	          0.46364987	          0.89011183	          0.00459032	         10.39881059	          1.22196422	          4.53775631	        -36.95151800	         11.99271873	          0.79790630	         31.12612986	         38.88946584	          2.18198079	         -4.05012794	        -70.99332796	          9.51605769	          2.55190964	          1.78039231	         -2.28456626	         -1.65494115	          1.48523097	         28.54504159	         -3.07733740	         16.98238282	          0.02123375	        -15.81942272	        -23.39448694	          6.33133446	        100.60049962	
          0.14755723	        -11.19724083	          2.49742680	          0.60349061	          0.48212139	          0.89204310	          0.00469158	          8.97233825	          0.86526628	          4.21485427	        -36.15932113	         10.26940081	          1.40054844	         32.24210190	         39.98552208	          2.37204755	         -4.06081908	        -70.21425604	          9.39181872	          2.11727496	          1.65979062	         -2.27846367	         -1.98606507	          1.63232127	         28.66166782	         -2.78653320	         17.08562167	          0.00004148	        -17.38339293	        -23.74230208	          5.06619516	        103.18456687	
          0.15302231	        -11.21893674	          2.60474362	          0.59687729	          0.50063352	          0.89387577	          0.00478162	          7.60363571	          0.53088616	          3.90090522	        -35.46039995	          8.57307711	          2.06746471	         33.02386090	         41.01966637	          2.54212207	         -4.04546444	        -69.29938429	          9.17820156	          1.69624368	          1.54722320	         -2.26847741	         -2.29773291	          1.77424812	         28.73729894	         -2.51915872	         17.28729383	          0.01966043	        -18.85334094	        -24.03345802	          3.81935979	        105.52200454	
          0.15848739	        -11.23863330	          2.69164451	          0.59332379	          0.51917312	          0.89559464	          0.00486200	          6.30272880	          0.22022153	          3.59818903	        -34.86615532	          6.87794156	          2.78268594	         33.51555334	         41.99232874	          2.69232129	         -4.00342810	        -68.25808054	          8.88157632	          1.28807141	          1.44233639	         -2.25648620	         -2.58901679	          1.91024820	         28.78250884	         -2.27014164	         17.56438313	          0.05327884	        -20.21617599	        -24.27522541	          2.60782966	        107.60856278	
          0.16395248	        -11.25634518	          2.75794050	          0.59191000	          0.53772839	          0.89718911	          0.00493168	          5.07893818	         -0.06719442	          3.30797702	        -34.38545092	          5.16233181	          3.53738892	         33.75738054	         42.90143802	          2.82291002	         -3.93464293	        -67.09632745	          8.50995910	          0.89261615	          1.34463382	         -2.24445498	         -2.85835585	          2.03970659	         28.80477484	         -2.03632332	         17.89130125	          0.08493759	        -21.46060035	        -24.47352263	          1.44798689	        109.44065006	
          0.16941756	        -11.27209315	          2.80376431	          0.59042908	          0.55629055	          0.89865247	          0.00498895	          3.94153539	         -0.33263279	          3.03357134	        -34.02780187	          3.41369814	          4.32730281	         33.77257495	         43.74094918	          2.93400988	         -3.83912036	        -65.81328198	          8.07222159	          0.50948204	          1.25399222	         -2.23379658	         -3.10384941	          2.16159156	         28.80892976	         -1.81542560	         18.23973800	          0.10750926	        -22.57797739	        -24.63304090	          0.35500613	        111.01525347	
          0.17488264	        -11.28586473	          2.82992752	          0.58598561	          0.57485208	          0.89998126	          0.00503170	          2.90110814	         -0.57793207	          2.78043159	        -33.80529325	          1.62234855	          5.14794566	         33.57439367	         44.50087051	          3.02709298	         -3.71472613	        -64.40055960	          7.57461920	          0.13872105	          1.17028181	         -2.22566429	         -3.32400899	          2.27450456	         28.79814728	         -1.60561591	         18.57995015	          0.11939363	        -23.56148366	        -24.75755552	         -0.65675950	        112.33004625	
          0.18034772	        -11.29772845	          2.83716460	          0.57556770	          0.59340737	          0.90117502	          0.00505762	          1.96621404	         -0.80546876	          2.55015747	        -33.72290853	         -0.22554243	          5.99219045	         33.17623894	         45.16845333	          3.10335088	         -3.56008349	        -62.84432422	          7.02342485	         -0.21987650	          1.09288085	         -2.22097826	         -3.51720944	          2.37720006	         28.77422303	         -1.40571121	         18.88338609	          0.12217359	        -24.40545131	        -24.84988200	         -1.57363548	        113.38314591	
          0.18581281	        -11.30782742	          2.82637850	          0.55578324	          0.61195247	          0.90223574	          0.00506336	          1.14252843	         -1.01860991	          2.34196332	        -33.77798820	         -2.14645078	          6.85338966	         32.59179240	         45.72914935	          3.16388992	         -3.37447052	        -61.12818306	          6.42600599	         -0.56578394	          1.02128743	         -2.22062607	         -3.68168283	          2.46860466	         28.73827220	         -1.21510471	         19.12663396	          0.11907827	        -25.10576156	        -24.91122821	         -2.38379264	        114.17291818	
          0.19127789	        -11.31609851	          2.79877584	          0.52361559	          0.63048649	          0.90316183	          0.00504555	          0.43386439	         -1.22066535	          2.15490573	        -33.96782363	         -4.14505219	          7.72489619	         31.81539741	         46.17152850	          3.21023506	         -3.15759264	        -59.24982802	          5.79124488	         -0.89881149	          0.95507661	         -2.22475285	         -3.81627646	          2.54770721	         28.69070728	         -1.03356211	         19.29365648	          0.11381181	        -25.65996041	        -24.94245069	         -3.07757099	        114.69935228	
          0.19674297	        -11.32217304	          2.75633488	          0.47752244	          0.64901217	          0.90394321	          0.00500208	         -0.15786703	         -1.41402670	          1.98647401	        -34.29228927	         -6.20978601	          8.59078794	         30.81723962	         46.49034233	          3.24552097	         -2.90944465	        -57.22962715	          5.13143992	         -1.21836918	          0.89412090	         -2.23231964	         -3.92174162	          2.61392288	         28.63098333	         -0.86123176	         19.37624288	          0.10913413	        -26.06653765	        -24.94578809	         -3.64697074	        114.96507162	
          0.20220805	        -11.32546896	          2.70175467	          0.41785232	          0.66753603	          0.90456373	          0.00493269	         -0.63303197	         -1.59825580	          1.83620337	        -34.75053707	         -8.31214770	          9.41980314	         29.54831910	         46.68382241	          3.27485864	         -2.63040063	        -55.10019167	          4.46029951	         -1.52432572	          0.83848905	         -2.24106346	         -4.00066565	          2.66686173	         28.55800423	         -0.69817539	         19.37474112	          0.10512387	        -26.32450028	        -24.92500718	         -4.08601620	        114.97414883	
          0.20767314	        -11.32527044	          2.63647223	          0.34640949	          0.68606230	          0.90499725	          0.00483815	         -0.99311374	         -1.77131447	          1.69641444	        -35.35311182	        -10.34750123	         10.20763474	         27.92396260	         46.75314567	          3.30246034	         -2.32229044	        -52.89770026	          3.79412233	         -1.81623216	          0.78787930	         -2.24838980	         -4.05477153	          2.70699580	         28.47178566	         -0.54492845	         19.29641785	          0.09839765	        -26.43244143	        -24.88524739	         -4.39035877	        114.73284705	
